<svg xmlns="http://www.w3.org/2000/svg" xmlns:xlink="http://www.w3.org/1999/xlink" width="38" height="38" viewBox="0 0 38 38">
  <defs>
    <linearGradient id="linear-gradient" x1="0.5" x2="0.5" y2="1" gradientUnits="objectBoundingBox">
      <stop offset="0" stop-color="#4bfb9d"/>
      <stop offset="1" stop-color="#2bb46b"/>
    </linearGradient>
  </defs>
  <g id="Camera" transform="translate(-56 -57)">
    <circle id="Oval" cx="19" cy="19" r="19" transform="translate(56 57)" fill="url(#linear-gradient)"/>
    <g id="camera-2" data-name="camera" transform="translate(65 67)">
      <path id="Shape" d="M18.261,17.392H1.739A1.741,1.741,0,0,1,0,15.652V4.348A1.741,1.741,0,0,1,1.739,2.609H6.724L8.334.193A.435.435,0,0,1,8.7,0h4.348a.435.435,0,0,1,.362.194l1.61,2.416h3.245A1.741,1.741,0,0,1,20,4.348v11.3A1.741,1.741,0,0,1,18.261,17.392ZM10.869,5.217A4.783,4.783,0,1,0,15.652,10,4.788,4.788,0,0,0,10.869,5.217Zm-6.956.435a.87.87,0,1,0,.869.869A.87.87,0,0,0,3.913,5.652Z" fill="#fff"/>
      <path id="Path" d="M3.043,1.3H0V.435A.435.435,0,0,1,.435,0H2.609a.435.435,0,0,1,.435.435Z" transform="translate(2.174 0.435)" fill="#fff"/>
    </g>
  </g>
</svg>
