<svg xmlns="http://www.w3.org/2000/svg" width="36" height="36" viewBox="0 0 36 36"><g transform="translate(-189 -256)"><circle cx="18" cy="18" r="18" transform="translate(189 256)" fill="#f2fff8"/><g transform="translate(46.407 173.98)"><path d="M13.562,97H2.977L5.1,95.139a.439.439,0,0,0,.15-.329v-.875a.438.438,0,0,0-.731-.325L.144,97.547a.438.438,0,0,0,0,.65l4.375,3.937a.438.438,0,0,0,.293.112.432.432,0,0,0,.178-.038.437.437,0,0,0,.26-.4v-.875a.439.439,0,0,0-.15-.329L2.977,98.747H13.562A.437.437,0,0,0,14,98.31v-.875A.437.437,0,0,0,13.562,97Z" transform="translate(149.593 3.898)" fill="#026e34"/><path d="M81.856,29.551l-4.375-3.937a.438.438,0,0,0-.731.325v.875a.439.439,0,0,0,.15.329L79.023,29H68.438a.437.437,0,0,0-.438.438v.875a.437.437,0,0,0,.438.438H79.023L76.9,32.609a.439.439,0,0,0-.15.329v.875a.437.437,0,0,0,.26.4.432.432,0,0,0,.178.038.438.438,0,0,0,.293-.112L81.856,30.2a.438.438,0,0,0,0-.65Z" transform="translate(89.311 67.52)" fill="#026e34"/></g></g></svg>